<svg width="68" height="42" viewBox="0 0 68 42" fill="none" xmlns="http://www.w3.org/2000/svg">
<path d="M46.0034 40.49C45.2432 41.1732 44.0901 41.1732 43.3298 40.49L39.8482 37.3614C38.9639 36.5667 38.9639 35.1808 39.8482 34.3861L49.8799 25.3715H2.99997C1.8954 25.3715 0.999969 24.476 0.999969 23.3715V18.9813C0.999969 17.8767 1.8954 16.9813 2.99997 16.9813L49.8799 16.9813L39.8482 7.96659L40.5166 7.22278L39.8482 7.96659C38.9639 7.17196 38.9639 5.78599 39.8482 4.99137L43.3298 1.86269C44.0901 1.1795 45.2432 1.1795 46.0034 1.86269L65.8406 19.6888C66.7249 20.4834 66.7249 21.8694 65.8406 22.664L46.0034 40.49Z" stroke="black" stroke-width="2"/>
</svg>
